<svg xmlns="http://www.w3.org/2000/svg" version="1.1" xmlns:xlink="http://www.w3.org/1999/xlink" xmlns:svgjs="http://svgjs.com/svgjs" width="1440" height="900" preserveAspectRatio="none" viewBox="0 0 1440 900"><g mask="url(&quot;#SvgjsMask1656&quot;)" fill="none"><rect width="1440" height="900" x="0" y="0" fill="rgba(250, 250, 250, 1)"></rect><use xlink:href="#SvgjsG1662" transform="translate(0, 0)" fill="rgba(16, 185, 129, 0.17)"></use><use xlink:href="#SvgjsG1662" transform="translate(1380, 0)" fill="rgba(16, 185, 129, 0.18)"></use></g><defs><mask id="SvgjsMask1656"><rect width="1440" height="900" fill="#ffffff"></rect></mask><g id="SvgjsG1657"><path d="M2.524 8.637H0.014V7.308h2.51v1.329zM3.656 4.576L1.884 2.804l0.935-0.935 1.772 1.772-0.935 0.935z m0 6.817l0.935 0.935-1.772 1.773-0.934-0.936 1.771-1.772z m4.997-8.884h-1.33V-0.002h1.33v2.511z m-1.33 10.952h1.33v2.51h-1.33v-2.509zM12.344 4.576l-0.96-0.935 1.796-1.772 0.935 0.935-1.772 1.772z m0 6.792l1.771 1.797-0.935 0.936-1.771-1.774 0.936-0.96z m3.643-4.06v1.329h-2.51V7.308h2.509z"></path><path d="M3.702 7.984a4.184 4.184 0 1 0 8.368 0 4.184 4.184 0 1 0-8.368 0"></path></g><g id="SvgjsG1658"><path d="M7.45 12.652S6.4 11.121 3.725 11.121C1.274 11.121 0 11.833 0 11.833V1.937s1.274-0.712 3.725-0.729C6.4 1.19 7.45 2.756 7.45 2.756V12.652z m1.087 0s1.05-1.531 3.725-1.531c2.451 0 3.725 0.712 3.725 0.713V1.937s-1.274-0.712-3.725-0.729c-2.675-0.017-3.725 1.548-3.725 1.548v9.896z"></path><path d="M8.012 15.733S6.4 13.411 3.725 13.411c-2.451 0-3.725 0.712-3.725 0.712v-1.186s1.274-0.712 3.725-0.729c2.675-0.018 4.287 2.34 4.287 2.34V15.733z m0 0s1.612-2.323 4.287-2.323c2.451 0 3.725 0.712 3.725 0.712v-1.185s-1.274-0.712-3.725-0.729c-2.675-0.019-4.287 2.339-4.287 2.339v1.185z"></path></g><g id="SvgjsG1659"><path d="M11.974 14.95h-0.243c-0.142-0.162-0.195-0.364-0.152-0.614 0.071-0.413 0.364-0.754 0.504-0.803l-0.002-0.005a0.525 0.525 0 0 0 0.346-0.491l0.01-10.776c0-0.289-0.234-0.525-0.517-0.527 0 0-2.157-0.002-2.749-0.006l0.003-1.204c0-0.213-0.123-0.403-0.318-0.485a0.517 0.517 0 0 0-0.564 0.11L4.684 3.773C4.051 4.41 3.55 5.613 3.549 6.518L3.52 14.057c-0.002 1.054 0.844 1.918 1.892 1.923l6.56 0.02c0.285 0 0.518-0.235 0.518-0.521v-0.002c0-0.291-0.229-0.525-0.516-0.526M11.398 2.784c0 0.899-0.008 8.829-0.01 9.73h-5.912l3.702-3.137-0.007-6.597c0.336 0.002 1.916 0.004 2.227 0.004M4.557 14.06s0.002-0.434 0.002-0.498H10.75c-0.089 0.19-0.16 0.391-0.194 0.594-0.049 0.28-0.024 0.542 0.038 0.79l-5.179-0.016c-0.474 0-0.858-0.389-0.858-0.87"></path></g><g id="SvgjsG1660"><path d="M13.031 12.687V1.875H9.957L9.97 0.071C9.957 0.078 4.189 2.651 4.189 2.651 3.256 3.097 2.919 3.747 2.919 4.632V13.347c0 1.389 1.116 2.528 2.401 2.528h7.737V14.275c-0.948-0.116-0.948-1.469-0.026-1.588z m-7.749 1.422c-0.848-0.005-0.844-1.194 0-1.194h5.399c-0.375 0.278-0.351 0.936 0.051 1.195H5.282z m6.021-2.884H6.577l3.38-1.524V3.628h1.347v7.597h-0.001z" fill-rule="evenodd"></path></g><g id="SvgjsG1661"><path d="M7.493 4.681c1.279 0 2.312-1.051 2.312-2.343C9.805 1.045 8.772 0 7.493 0S5.18 1.045 5.18 2.338c0 1.291 1.034 2.342 2.313 2.343z m2.249 0.569c1.058 0.038 1.503 0.894 1.503 0.895l3.415 4.737a1.331 1.331 0 0 1 0.224 0.745c0 0.737-0.59 1.335-1.319 1.334-0.174 0-0.333-0.039-0.484-0.096l-2.061-0.582v2.079H3.864V12.283l-2.061 0.581a1.308 1.308 0 0 1-0.485 0.097C0.589 12.962 0 12.363 0 11.626c0-0.278 0.082-0.535 0.229-0.745l3.413-4.736s0.448-0.857 1.501-0.895H9.742zM7.443 12.91l2.67-0.897-0.058-0.012c-1.844-0.547-1.127-3.009 0.712-2.459l0.253 0.089v-2.779l-3.577 1.18-3.579-1.18V9.63l0.252-0.089c1.843-0.55 2.561 1.913 0.717 2.459l-0.06 0.013 2.67 0.897zM14.793 16c0.183 0 0.33-0.148 0.33-0.333a0.33 0.33 0 0 0-0.33-0.333H0.352c-0.179 0-0.329 0.147-0.329 0.333 0 0.185 0.15 0.333 0.329 0.333h14.441z"></path></g><g id="SvgjsG1662"><use xlink:href="#SvgjsG1657" transform="translate(0, 0) scale(3)" fill="rgba(16, 185, 129, 0.52)"></use><use xlink:href="#SvgjsG1658" transform="translate(0, 138) scale(3)" fill="rgba(16, 185, 129, 0.17)"></use><use xlink:href="#SvgjsG1659" transform="translate(0, 276) scale(3)" fill="rgba(16, 185, 129, 0.18)"></use><use xlink:href="#SvgjsG1660" transform="translate(0, 414) scale(3)" fill="rgba(16, 185, 129, 0.17)"></use><use xlink:href="#SvgjsG1661" transform="translate(0, 552) scale(3)" fill="rgba(16, 185, 129, 0.52)"></use><use xlink:href="#SvgjsG1657" transform="translate(0, 690) scale(3)" fill="rgba(16, 185, 129, 0.52)"></use><use xlink:href="#SvgjsG1658" transform="translate(0, 828) scale(3)" fill="rgba(16, 185, 129, 0.52)"></use><use xlink:href="#SvgjsG1658" transform="translate(138, 0) scale(3)" fill="rgba(16, 185, 129, 0.17)"></use><use xlink:href="#SvgjsG1659" transform="translate(138, 138) scale(3)" fill="rgba(16, 185, 129, 0.52)"></use><use xlink:href="#SvgjsG1660" transform="translate(138, 276) scale(3)" fill="rgba(16, 185, 129, 0.52)"></use><use xlink:href="#SvgjsG1661" transform="translate(138, 414) scale(3)" fill="rgba(16, 185, 129, 0.18)"></use><use xlink:href="#SvgjsG1657" transform="translate(138, 552) scale(3)" fill="rgba(16, 185, 129, 0.17)"></use><use xlink:href="#SvgjsG1658" transform="translate(138, 690) scale(3)" fill="rgba(16, 185, 129, 0.39)"></use><use xlink:href="#SvgjsG1659" transform="translate(138, 828) scale(3)" fill="rgba(16, 185, 129, 0.39)"></use><use xlink:href="#SvgjsG1659" transform="translate(276, 0) scale(3)" fill="rgba(16, 185, 129, 0.17)"></use><use xlink:href="#SvgjsG1660" transform="translate(276, 138) scale(3)" fill="rgba(16, 185, 129, 0.52)"></use><use xlink:href="#SvgjsG1661" transform="translate(276, 276) scale(3)" fill="rgba(16, 185, 129, 0.52)"></use><use xlink:href="#SvgjsG1657" transform="translate(276, 414) scale(3)" fill="rgba(16, 185, 129, 0.39)"></use><use xlink:href="#SvgjsG1658" transform="translate(276, 552) scale(3)" fill="rgba(16, 185, 129, 0.52)"></use><use xlink:href="#SvgjsG1659" transform="translate(276, 690) scale(3)" fill="rgba(16, 185, 129, 0.18)"></use><use xlink:href="#SvgjsG1660" transform="translate(276, 828) scale(3)" fill="rgba(16, 185, 129, 0.39)"></use><use xlink:href="#SvgjsG1660" transform="translate(414, 0) scale(3)" fill="rgba(16, 185, 129, 0.18)"></use><use xlink:href="#SvgjsG1661" transform="translate(414, 138) scale(3)" fill="rgba(16, 185, 129, 0.18)"></use><use xlink:href="#SvgjsG1657" transform="translate(414, 276) scale(3)" fill="rgba(16, 185, 129, 0.39)"></use><use xlink:href="#SvgjsG1658" transform="translate(414, 414) scale(3)" fill="rgba(16, 185, 129, 0.18)"></use><use xlink:href="#SvgjsG1659" transform="translate(414, 552) scale(3)" fill="rgba(16, 185, 129, 0.39)"></use><use xlink:href="#SvgjsG1660" transform="translate(414, 690) scale(3)" fill="rgba(16, 185, 129, 0.52)"></use><use xlink:href="#SvgjsG1661" transform="translate(414, 828) scale(3)" fill="rgba(16, 185, 129, 0.39)"></use><use xlink:href="#SvgjsG1661" transform="translate(552, 0) scale(3)" fill="rgba(16, 185, 129, 0.18)"></use><use xlink:href="#SvgjsG1657" transform="translate(552, 138) scale(3)" fill="rgba(16, 185, 129, 0.52)"></use><use xlink:href="#SvgjsG1658" transform="translate(552, 276) scale(3)" fill="rgba(16, 185, 129, 0.52)"></use><use xlink:href="#SvgjsG1659" transform="translate(552, 414) scale(3)" fill="rgba(16, 185, 129, 0.18)"></use><use xlink:href="#SvgjsG1660" transform="translate(552, 552) scale(3)" fill="rgba(16, 185, 129, 0.18)"></use><use xlink:href="#SvgjsG1661" transform="translate(552, 690) scale(3)" fill="rgba(16, 185, 129, 0.52)"></use><use xlink:href="#SvgjsG1657" transform="translate(552, 828) scale(3)" fill="rgba(16, 185, 129, 0.17)"></use><use xlink:href="#SvgjsG1657" transform="translate(690, 0) scale(3)" fill="rgba(16, 185, 129, 0.17)"></use><use xlink:href="#SvgjsG1658" transform="translate(690, 138) scale(3)" fill="rgba(16, 185, 129, 0.18)"></use><use xlink:href="#SvgjsG1659" transform="translate(690, 276) scale(3)" fill="rgba(16, 185, 129, 0.39)"></use><use xlink:href="#SvgjsG1660" transform="translate(690, 414) scale(3)" fill="rgba(16, 185, 129, 0.52)"></use><use xlink:href="#SvgjsG1661" transform="translate(690, 552) scale(3)" fill="rgba(16, 185, 129, 0.18)"></use><use xlink:href="#SvgjsG1657" transform="translate(690, 690) scale(3)" fill="rgba(16, 185, 129, 0.17)"></use><use xlink:href="#SvgjsG1658" transform="translate(690, 828) scale(3)" fill="rgba(16, 185, 129, 0.18)"></use><use xlink:href="#SvgjsG1658" transform="translate(828, 0) scale(3)" fill="rgba(16, 185, 129, 0.39)"></use><use xlink:href="#SvgjsG1659" transform="translate(828, 138) scale(3)" fill="rgba(16, 185, 129, 0.17)"></use><use xlink:href="#SvgjsG1660" transform="translate(828, 276) scale(3)" fill="rgba(16, 185, 129, 0.18)"></use><use xlink:href="#SvgjsG1661" transform="translate(828, 414) scale(3)" fill="rgba(16, 185, 129, 0.18)"></use><use xlink:href="#SvgjsG1657" transform="translate(828, 552) scale(3)" fill="rgba(16, 185, 129, 0.39)"></use><use xlink:href="#SvgjsG1658" transform="translate(828, 690) scale(3)" fill="rgba(16, 185, 129, 0.52)"></use><use xlink:href="#SvgjsG1659" transform="translate(828, 828) scale(3)" fill="rgba(16, 185, 129, 0.17)"></use><use xlink:href="#SvgjsG1659" transform="translate(966, 0) scale(3)" fill="rgba(16, 185, 129, 0.52)"></use><use xlink:href="#SvgjsG1660" transform="translate(966, 138) scale(3)" fill="rgba(16, 185, 129, 0.18)"></use><use xlink:href="#SvgjsG1661" transform="translate(966, 276) scale(3)" fill="rgba(16, 185, 129, 0.39)"></use><use xlink:href="#SvgjsG1657" transform="translate(966, 414) scale(3)" fill="rgba(16, 185, 129, 0.39)"></use><use xlink:href="#SvgjsG1658" transform="translate(966, 552) scale(3)" fill="rgba(16, 185, 129, 0.18)"></use><use xlink:href="#SvgjsG1659" transform="translate(966, 690) scale(3)" fill="rgba(16, 185, 129, 0.52)"></use><use xlink:href="#SvgjsG1660" transform="translate(966, 828) scale(3)" fill="rgba(16, 185, 129, 0.18)"></use><use xlink:href="#SvgjsG1660" transform="translate(1104, 0) scale(3)" fill="rgba(16, 185, 129, 0.17)"></use><use xlink:href="#SvgjsG1661" transform="translate(1104, 138) scale(3)" fill="rgba(16, 185, 129, 0.39)"></use><use xlink:href="#SvgjsG1657" transform="translate(1104, 276) scale(3)" fill="rgba(16, 185, 129, 0.39)"></use><use xlink:href="#SvgjsG1658" transform="translate(1104, 414) scale(3)" fill="rgba(16, 185, 129, 0.17)"></use><use xlink:href="#SvgjsG1659" transform="translate(1104, 552) scale(3)" fill="rgba(16, 185, 129, 0.18)"></use><use xlink:href="#SvgjsG1660" transform="translate(1104, 690) scale(3)" fill="rgba(16, 185, 129, 0.39)"></use><use xlink:href="#SvgjsG1661" transform="translate(1104, 828) scale(3)" fill="rgba(16, 185, 129, 0.17)"></use><use xlink:href="#SvgjsG1661" transform="translate(1242, 0) scale(3)" fill="rgba(16, 185, 129, 0.39)"></use><use xlink:href="#SvgjsG1657" transform="translate(1242, 138) scale(3)" fill="rgba(16, 185, 129, 0.18)"></use><use xlink:href="#SvgjsG1658" transform="translate(1242, 276) scale(3)" fill="rgba(16, 185, 129, 0.39)"></use><use xlink:href="#SvgjsG1659" transform="translate(1242, 414) scale(3)" fill="rgba(16, 185, 129, 0.52)"></use><use xlink:href="#SvgjsG1660" transform="translate(1242, 552) scale(3)" fill="rgba(16, 185, 129, 0.39)"></use><use xlink:href="#SvgjsG1661" transform="translate(1242, 690) scale(3)" fill="rgba(16, 185, 129, 0.52)"></use><use xlink:href="#SvgjsG1657" transform="translate(1242, 828) scale(3)" fill="rgba(16, 185, 129, 0.17)"></use></g></defs></svg>